<svg id="opsydia_logo_ani-svg" xmlns="http://www.w3.org/2000/svg" xmlns:xlink="http://www.w3.org/1999/xlink" viewBox="0 0 144.94501 145" shape-rendering="geometricPrecision" text-rendering="geometricPrecision">
<style><![CDATA[
#opsydia_logo_ani-svg-u-path40_tr {animation: opsydia_logo_ani-svg-u-path40_tr__tr 24000ms linear infinite normal forwards}@keyframes opsydia_logo_ani-svg-u-path40_tr__tr { 0% {transform: translate(72.473999px,72.499905px) rotate(0deg)} 100% {transform: translate(72.473999px,72.499905px) rotate(1080deg)}} #opsydia_logo_ani-svg-u-path42_tr {animation: opsydia_logo_ani-svg-u-path42_tr__tr 24000ms linear infinite normal forwards}@keyframes opsydia_logo_ani-svg-u-path42_tr__tr { 0% {transform: translate(72.47395px,72.499902px) rotate(0deg)} 100% {transform: translate(72.47395px,72.499902px) rotate(720deg)}} #opsydia_logo_ani-svg-u-path44_tr {animation: opsydia_logo_ani-svg-u-path44_tr__tr 24000ms linear infinite normal forwards}@keyframes opsydia_logo_ani-svg-u-path44_tr__tr { 0% {transform: translate(72.732679px,72.5px) rotate(0deg)} 100% {transform: translate(72.732679px,72.5px) rotate(360deg)}}
]]></style>
<g id="opsydia_logo_ani-svg-s-g1" clip-path="url(#opsydia_logo_ani-svg-u-clip0)"><g id="opsydia_logo_ani-svg-u-g60"><g id="opsydia_logo_ani-svg-u-path40_tr" transform="translate(72.473999,72.499905) rotate(0)"><path id="opsydia_logo_ani-svg-u-path40" d="M72.4726,25.9678c-2.0455,0-4.0566.1411-6.0355.3857l16.4071,5.9748c4.3666,1.0584,8.4476,2.7895,12.1596,5.0404l-3.5162-7.5406c-5.8323-2.479-12.2607-3.8603-19.015-3.8603ZM58.0364,28.1479c-9.9683,3.0902-18.5094,9.3082-24.4535,17.4529L46.848,39.4145c5.7654-4.2215,12.6715-7.057,20.2061-7.9834l-9.0177-3.2832Zm40.098,5.1462l4.7876,10.2665c5.703,5.6668,9.745,12.9117,11.365,21.0017l2.957-8.1207c-3.634-9.597-10.404-17.7144-19.1096-23.1475ZM37.5362,48.7867l-8.2093,3.8289C26.3936,58.6444,24.751,65.3844,24.751,72.5c0,3.3061.3573,6.5301,1.0311,9.6408l4.1275-11.3466c.3398-8.1682,3.1091-15.7259,7.6266-22.0075ZM119.372,63.9222l-4.473,12.2953c-.601,6.5714-2.779,12.7012-6.162,18.03l7.678-3.5832c2.434-5.5805,3.782-11.7188,3.782-18.1643c0-2.932-.292-5.7969-.825-8.5778ZM30.8779,81.4636l-2.8678,7.8835c4.1103,10.2847,11.8438,18.8059,21.6828,24.0359l-4.0646-8.72c-7.3395-5.7923-12.6435-13.9115-14.7504-23.1994ZM112.768,97.3992l-10.912,5.0888c-5.5856,5.177-12.6209,8.885-20.4657,10.507l8.1121,2.951c9.6379-3.605,17.7926-10.156,23.2656-18.5468ZM52.795,109.249l3.2363,6.937c5.1294,1.84,10.6678,2.846,16.4413,2.846c3.276,0,6.4735-.332,9.5661-.948L70.4446,113.86c-6.3517-.287-12.3319-1.92-17.6496-4.611Z" transform="translate(-72.473999,-72.499905)" fill="#c5e2c5"/></g><g id="opsydia_logo_ani-svg-u-path42_tr" transform="translate(72.47395,72.499902) rotate(0)"><path id="opsydia_logo_ani-svg-u-path42" d="M72.4725,11.9238c-9.8977,0-19.2362,2.3968-27.4899,6.6177l5.7985,2.1116c6.6724-2.7932,13.9994-4.3404,21.6914-4.3404c4.649,0,9.1603.5747,13.4793,1.6373l-2.3223-4.9804c-3.6186-.6759-7.344-1.0458-11.157-1.0458Zm16.8127,2.3888l2.5222,5.4119c12.6206,4.6212,23.1076,13.6421,29.6236,25.2077l1.917-5.2662c-7.84-12.1135-19.887-21.2547-34.0628-25.3534ZM39.8154,21.5132C27.9888,29.1149,18.9916,40.7236,14.702,54.4072l5.5643-2.5945c4.7823-12.0756,13.5979-22.1029,24.822-28.3794l-5.2729-1.9201ZM126.324,44.8207l-2.105,5.7862c2.844,6.7272,4.421,14.1231,4.421,21.8932c0,4.5476-.554,8.9621-1.571,13.1953l4.965-2.3145c.642-3.5324.994-7.1645.994-10.8808c0-9.974-2.425-19.3809-6.704-27.6794ZM18.2697,57.776l-5.0673,2.3631c-.8304,3.993-1.2825,8.1226-1.2825,12.361c0,10.2427,2.5593,19.8869,7.0553,28.3479l2.0766-5.709c-3.0472-6.9248-4.7445-14.5802-4.7445-22.6389c0-5.099.6927-10.0306,1.9624-14.7241ZM130.726,89.0214l-5.39,2.5145c-4.35,12.1021-12.731,22.2681-23.526,28.8911l5.116,1.863c11.378-7.905,19.928-19.606,23.8-33.2686ZM23.8768,100.708l-1.8938,5.206c8.2917,12.499,21.0927,21.752,36.0761,25.419l-2.4279-5.212c-13.4911-4.229-24.7817-13.407-31.7544-25.413Zm72.5665,22.619c-7.269,3.434-15.3911,5.36-23.9708,5.36-3.8126,0-7.5331-.383-11.1314-1.105l2.2566,4.84c2.898.427,5.8592.654,8.8748.654c10.7301,0,20.8045-2.809,29.5465-7.717l-5.5757-2.032Z" transform="translate(-72.47395,-72.499902)" fill="#84c084"/></g><g id="opsydia_logo_ani-svg-u-path44_tr" transform="translate(72.732679,72.5) rotate(0)"><path id="opsydia_logo_ani-svg-u-path44" d="M72.4722,0C56.8945,0,42.4701,4.9438,30.649,13.3239l5.0673,1.843C46.3178,8.35502,58.9247,4.38891,72.4722,4.38891c2.482,0,4.931.14161,7.3438.40004L77.6794,0.205725C75.9578,0.083078,74.2249,0,72.4722,0Zm10.5001.768621L85.2232,5.59758C101.954,8.76484,116.51,18.0431,126.489,31.0282l1.743-4.7861C117.049,12.7749,101.1,3.40589,82.9723,0.768621ZM26.3359,16.607C13.0997,27.5564,3.82624,43.1212,0.954029,60.822L5.84703,58.5389C9.23832,42.2549,18.4125,28.105,31.1546,18.3614L26.3359,16.607ZM131.528,30.5167l-1.839,5.0518c6.874,10.6354,10.868,23.3104,10.868,36.9315c0,2.3882-.126,4.7475-.366,7.072l4.568-2.1287c.11-1.6352.186-3.2802.186-4.9433c0-15.6472-4.977-30.1332-13.417-41.9833ZM4.92156,64.0022L0.302774,66.1567C0.120794,68.2498,0,70.36,0,72.5c0,15.8896,5.13368,30.58,13.8135,42.529l1.8224-5C8.52741,99.2705,4.38741,86.3733,4.38742,72.5c-.00001-2.8792.1879-5.7132.53414-8.4978ZM144.21,82.7323l-4.81,2.243c-2.997,16.2177-11.733,30.4017-24.016,40.3947l4.739,1.726c12.772-11.173,21.595-26.755,24.087-44.3637ZM18.8579,114.498l-1.731,4.757c11.6232,13.746,28.2562,23.119,47.079,25.262l-2.1909-4.703c-17.467-2.689-32.7324-12.013-43.1571-25.316Zm92.1701,14.141c-10.958,7.547-24.2315,11.972-38.5558,11.972-1.7366,0-3.4519-.087-5.1557-.214l2.108,4.526c1.0117.042,2.0257.077,3.0477.077c16.3291,0,31.3918-5.428,43.5118-14.558l-4.956-1.803Z" transform="translate(-72.472496,-72.5)" fill="#63af63"/></g></g><clipPath id="opsydia_logo_ani-svg-u-clip0"><rect id="opsydia_logo_ani-svg-u-rect62" width="478" height="145" rx="0" ry="0" fill="#fff"/></clipPath></g></svg>
