<svg width="171" height="521" viewBox="0 0 171 521" fill="none" xmlns="http://www.w3.org/2000/svg">
<g id="cassette">
<g id="1">
<path d="M14.5378 420.615C13.8069 421.253 13.1619 422.358 13.033 423.038C12.947 423.76 13.033 424.738 13.2479 425.29C13.5059 425.8 13.9788 426.523 14.3228 426.863C14.6668 427.203 15.4837 427.671 16.1716 427.841C16.8165 428.053 17.9774 428.053 18.7513 427.841C19.6112 427.628 20.4281 426.991 20.987 426.14C21.46 425.375 21.8469 424.313 21.8469 423.803C21.8469 423.25 21.6319 422.4 21.374 421.89C21.116 421.338 20.4711 420.573 19.9551 420.19C19.4822 419.765 18.3213 419.425 17.4614 419.425C16.2576 419.425 15.4837 419.765 14.5378 420.615Z" fill="#FEFEFE"/>
<path d="M56.1138 420.615C55.211 421.508 54.953 422.145 54.953 423.505C54.953 424.568 55.2969 425.673 55.8129 426.353C56.3718 427.118 57.2317 427.586 58.3066 427.756C59.2525 427.883 60.4133 427.798 61.1442 427.416C61.8322 427.118 62.6491 426.481 62.993 426.013C63.294 425.545 63.552 424.398 63.552 423.463C63.552 422.145 63.294 421.508 62.3911 420.615C61.4452 419.68 60.8003 419.425 59.2525 419.425C57.7047 419.425 57.0597 419.68 56.1138 420.615Z" fill="#FEFEFE"/>
<path d="M97.7329 421.55C97.3889 422.23 97.088 423.08 97.088 423.335C97.088 423.633 97.4319 424.525 97.8619 425.333C98.2918 426.225 99.1517 427.033 100.012 427.373C100.872 427.713 101.903 427.798 102.763 427.586C103.494 427.416 104.569 426.778 105.128 426.098C105.73 425.375 106.117 424.398 106.117 423.463C106.117 422.485 105.73 421.508 105.042 420.7C104.44 419.978 103.365 419.298 102.591 419.17C101.688 419 100.657 419.17 99.7966 419.595C99.0227 419.978 98.0769 420.828 97.7329 421.55Z" fill="#FEFEFE"/>
<path d="M139.696 421.423C139.438 421.975 139.223 422.825 139.266 423.335C139.266 423.888 139.438 424.738 139.653 425.205C139.868 425.715 140.47 426.438 141.029 426.821C141.588 427.203 142.792 427.501 143.737 427.501C145.07 427.501 145.715 427.246 146.575 426.353C147.22 425.673 147.822 424.695 147.951 424.1C148.08 423.505 147.951 422.4 147.607 421.593C147.306 420.785 146.618 419.85 146.059 419.553C145.5 419.255 144.339 419 143.522 419C142.706 419 141.588 419.34 141.115 419.765C140.599 420.148 139.954 420.913 139.696 421.423Z" fill="#FEFEFE"/>
</g>
<g id="2">
<path d="M19.0737 404.844C18.3436 406.056 18 407.226 18 408.688C18 410.025 18.3436 411.32 18.859 412.24C19.3744 413.033 20.5769 414.203 21.5647 414.872C22.9391 415.749 23.8839 416 25.516 416C26.8903 416 28.1788 415.708 29.0807 415.164C29.8108 414.705 30.9705 413.618 31.6576 412.783C32.6454 411.487 32.8172 410.861 32.8172 408.646C32.8172 406.39 32.6454 405.847 31.4858 404.426C30.7557 403.549 29.5102 402.504 28.6942 402.128C27.8782 401.71 26.4609 401.376 25.516 401.376C24.5711 401.376 22.982 401.752 21.9942 402.212C20.7487 402.797 19.8038 403.632 19.0737 404.844Z" fill="#FEFEFE"/>
<path d="M60.7767 404.802C60.3902 405.471 59.9607 406.85 59.8319 407.936C59.6601 409.524 59.8319 410.318 60.562 411.696C61.0774 412.657 62.2799 413.953 63.2677 414.621C64.3844 415.331 65.7588 415.833 66.9613 415.916C68.3786 416.042 69.4094 415.791 70.8267 415.081C72.0292 414.454 73.103 413.451 73.7042 412.407C74.3914 411.279 74.6921 410.067 74.6921 408.479C74.6921 406.766 74.4773 405.805 73.7472 404.76C73.1889 403.967 72.2869 402.964 71.6857 402.546C71.0844 402.128 69.8389 401.585 68.894 401.418C67.9062 401.209 66.5318 401.209 65.6729 401.418C64.8568 401.627 63.5684 402.212 62.7953 402.713C62.0222 403.256 61.1203 404.175 60.7767 404.802Z" fill="#FEFEFE"/>
<path d="M103.167 404.928C102.566 405.972 102.179 407.309 102.179 408.479C102.179 409.816 102.523 410.903 103.382 412.24C104.112 413.368 105.186 414.412 106.173 414.83C107.032 415.248 108.75 415.582 109.91 415.582C111.112 415.582 112.659 415.29 113.346 414.955C114.033 414.621 115.15 413.618 115.837 412.783C116.653 411.738 117.039 410.61 117.168 409.148C117.297 407.894 117.082 406.432 116.739 405.596C116.395 404.802 115.493 403.632 114.763 402.964C113.99 402.337 112.573 401.585 111.628 401.376C110.683 401.125 109.18 401.084 108.321 401.251C107.419 401.418 106.087 401.919 105.4 402.421C104.713 402.88 103.682 404.05 103.167 404.928Z" fill="#FEFEFE"/>
<path d="M145.085 404.719C144.698 405.513 144.226 406.724 144.14 407.435C144.011 408.103 144.097 409.357 144.355 410.15C144.569 410.944 145.214 412.156 145.729 412.866C146.244 413.535 147.447 414.454 148.392 414.914C149.551 415.457 150.711 415.624 152.257 415.54C153.717 415.415 154.877 415.039 155.908 414.287C156.724 413.702 157.712 412.49 158.184 411.571C158.613 410.694 159 409.189 159 408.27C159 407.351 158.656 405.847 158.184 404.928C157.755 404.008 156.681 402.838 155.865 402.295C155.049 401.794 153.76 401.251 153.073 401.125C152.386 400.958 151.097 400.958 150.281 401.125C149.465 401.251 148.134 401.794 147.318 402.295C146.502 402.838 145.514 403.925 145.085 404.719Z" fill="#FEFEFE"/>
</g>
<g id="4">
<path d="M14.3403 392.391C14.1276 392.783 14 393.478 14 393.957C14 394.478 14.4679 395.348 15.0633 395.913C15.6162 396.478 16.5945 396.957 17.1899 397C17.7854 397 18.7211 396.522 19.3166 395.913C19.912 395.304 20.3799 394.522 20.3799 394.174C20.3799 393.826 20.1247 393.043 19.8695 392.435C19.5718 391.826 18.8487 391.13 18.2532 390.87C17.4451 390.522 16.8922 390.565 15.914 391.043C15.2334 391.391 14.5104 392 14.3403 392.391Z" fill="#FEFEFE"/>
<path d="M56.6601 391.217C56.1497 391.652 55.6393 392.391 55.5542 392.87C55.4266 393.348 55.4692 394.174 55.6818 394.696C55.8945 395.174 56.5325 395.913 57.1279 396.304C58.0636 396.87 58.4464 396.913 59.5523 396.435C60.3179 396.174 61.0834 395.565 61.2536 395.13C61.4662 394.739 61.6364 394 61.6364 393.522C61.6364 393 61.1685 392.13 60.573 391.565C59.9776 390.957 59.0844 390.478 58.574 390.478C58.0211 390.435 57.1704 390.783 56.6601 391.217Z" fill="#FEFEFE"/>
<path d="M98.3419 391.435C97.7889 392 97.3636 392.957 97.3636 393.565C97.3636 394.174 97.7889 395.13 98.3419 395.696C99.0224 396.435 99.7454 396.696 100.681 396.652C101.617 396.609 102.297 396.174 102.893 395.348C103.403 394.696 103.786 393.87 103.786 393.522C103.786 393.174 103.403 392.348 102.893 391.652C102.297 390.783 101.659 390.478 100.681 390.478C99.788 390.478 98.9373 390.826 98.3419 391.435Z" fill="#FEFEFE"/>
<path d="M140.236 390.913C139.343 391.565 139.045 392.174 139.045 393.217C139.045 394.174 139.386 395.043 140.024 395.696C140.619 396.304 141.47 396.696 142.065 396.652C142.618 396.609 143.511 396.13 144.022 395.609C144.617 395 145 394.043 145 393.174C145 392.174 144.702 391.565 143.852 390.913C143.171 390.391 142.363 390 142.023 390C141.682 390 140.874 390.391 140.236 390.913Z" fill="#FEFEFE"/>
</g>
<g id="8">
<path d="M35.3484 370.485C34.7474 371.081 34.1893 372.231 34.0605 373.04C33.9317 373.849 34.0176 374.957 34.2322 375.468C34.4039 375.979 34.962 376.66 35.3913 377.044C35.8635 377.427 36.8938 377.81 37.7094 377.938C38.7826 378.108 39.5982 377.938 40.6285 377.299C41.3583 376.831 42.2169 375.936 42.4744 375.255C42.732 374.616 42.8179 373.509 42.6891 372.827C42.5603 372.103 41.9593 371.081 41.3154 370.485C40.4997 369.676 39.77 369.42 38.3104 369.42C36.8938 369.42 36.164 369.676 35.3484 370.485Z" fill="#FEFEFE"/>
<path d="M77.2033 370.485C76.216 371.464 75.9155 372.146 75.9155 373.424C75.9155 374.616 76.2589 375.51 77.0316 376.447C77.976 377.597 78.4053 377.768 80.0366 377.768C81.4103 377.725 82.2688 377.427 83.1274 376.703C84.1148 375.809 84.2865 375.34 84.2865 373.466C84.2865 371.592 84.1148 371.124 83.1274 370.229C82.2688 369.505 81.4103 369.207 80.2083 369.207C78.8775 369.207 78.1907 369.505 77.2033 370.485Z" fill="#FEFEFE"/>
<path d="M118.972 370.996C118.715 371.55 118.371 372.359 118.286 372.827C118.2 373.296 118.2 374.105 118.286 374.616C118.371 375.17 119.058 376.064 119.745 376.66C120.475 377.299 121.505 377.725 122.278 377.725C122.965 377.725 124.124 377.384 124.854 376.958C125.54 376.575 126.313 375.809 126.571 375.255C126.785 374.744 127 373.892 127 373.338C127 372.827 126.614 371.763 126.141 370.996C125.583 370.144 124.725 369.463 123.78 369.207C122.621 368.867 121.934 368.952 120.904 369.42C120.131 369.761 119.273 370.485 118.972 370.996Z" fill="#FEFEFE"/>
</g>
<g id="16">
<path d="M39.6001 356.02C39.2572 356.833 39 358.37 39 359.409C39.0429 360.493 39.4286 362.12 39.8572 363.024C40.3287 363.927 41.3145 365.147 42.0861 365.735C43.2433 366.593 44.0577 366.774 46.5008 366.774C49.0297 366.774 49.7155 366.593 50.787 365.735C51.5157 365.147 52.4158 364.108 52.8015 363.476C53.2302 362.798 53.6588 361.352 53.8302 360.222C54.0017 358.867 53.8731 357.556 53.4016 356.246C52.9301 354.981 52.1157 353.896 50.9156 352.992C49.8869 352.224 48.301 351.501 47.3581 351.366C46.2437 351.185 45.0435 351.366 43.9291 351.863C42.9862 352.269 41.7432 353.038 41.186 353.58C40.6288 354.122 39.9001 355.252 39.6001 356.02Z" fill="#FEFEFE"/>
<path d="M81.0475 356.607C80.7903 357.466 80.576 358.686 80.6189 359.318C80.6189 359.951 80.8332 361.035 81.0904 361.804C81.3475 362.527 82.1619 363.837 82.8906 364.65C83.6192 365.464 84.9051 366.322 85.7195 366.639C86.5338 366.91 88.1197 367.045 89.1913 366.955C90.52 366.819 91.6344 366.367 92.7917 365.419C93.6918 364.65 94.7204 363.34 95.0633 362.481C95.4491 361.533 95.6205 359.906 95.492 358.415C95.4062 356.698 95.0205 355.432 94.2918 354.393C93.6918 353.535 92.4488 352.45 91.5058 351.998C90.5629 351.546 89.0627 351.185 88.2054 351.185C87.3053 351.185 85.9338 351.456 85.2051 351.818C84.4336 352.134 83.2763 352.992 82.6763 353.715C82.0333 354.438 81.3475 355.749 81.0475 356.607Z" fill="#FEFEFE"/>
<path d="M123.867 355.342C123.395 356.426 123.009 358.098 123.009 359.092C123.009 360.087 123.309 361.487 123.695 362.255C124.038 362.978 124.681 363.973 125.067 364.47C125.452 364.921 126.524 365.69 127.424 366.141C128.281 366.593 129.696 367 130.51 367C131.325 367 132.739 366.639 133.639 366.141C134.496 365.69 135.739 364.696 136.425 363.882C137.068 363.114 137.711 361.713 137.84 360.764C138.011 359.861 138.054 358.369 137.925 357.511C137.84 356.652 137.325 355.252 136.811 354.438C136.296 353.67 135.053 352.54 134.068 351.998C132.996 351.456 131.367 351.004 130.253 351.004C128.796 350.959 127.853 351.275 126.524 352.179C125.41 352.992 124.424 354.167 123.867 355.342Z" fill="#FEFEFE"/>
</g>
<g id="32">
<path d="M35.8553 342.492C35.3849 343.099 35 344.125 35 344.825C35 345.571 35.3849 346.55 35.8553 347.063C36.3684 347.623 37.3092 347.996 38.1217 347.996C38.977 348.043 39.7895 347.67 40.3455 347.017C40.8586 346.41 41.2007 345.431 41.158 344.545C41.1152 343.612 40.7303 342.819 40.0889 342.259C39.5329 341.793 38.5494 341.42 37.9079 341.466C37.2237 341.466 36.3257 341.933 35.8553 342.492Z" fill="#FEFEFE"/>
<path d="M77.507 342.446C77.2504 342.819 76.9511 343.425 76.8228 343.845C76.7373 344.265 76.7373 345.104 76.9083 345.664C77.0366 346.224 77.6781 347.017 78.2768 347.436C79.1748 348.043 79.688 348.136 80.6288 347.763C81.2702 347.483 82.0827 346.783 82.4248 346.13C82.7669 345.431 82.8952 344.451 82.7242 343.659C82.5959 342.912 81.9544 342.119 81.1847 341.7C80.3294 341.233 79.6024 341.14 78.961 341.42C78.405 341.606 77.7636 342.119 77.507 342.446Z" fill="#FEFEFE"/>
<path d="M119.886 342.166C119.287 342.819 118.817 343.798 118.859 344.358C118.859 344.964 118.988 345.711 119.116 345.991C119.244 346.317 119.886 346.923 120.57 347.296C121.382 347.763 122.195 347.856 122.965 347.623C123.692 347.436 124.29 346.737 124.675 345.757C125.06 344.685 125.103 343.938 124.804 343.099C124.59 342.446 123.991 341.7 123.521 341.466C123.05 341.187 122.281 341 121.81 341C121.34 341 120.484 341.513 119.886 342.166Z" fill="#FEFEFE"/>
</g>
<g id="64">
<path d="M13.8549 322.303C13.3847 323.086 13 324.467 13 325.434C13 326.724 13.2992 327.599 14.0686 328.428C14.667 329.118 15.6501 329.809 16.334 329.947C16.9752 330.086 18.0438 329.947 18.7277 329.579C19.4116 329.257 20.352 328.474 20.7794 327.829C21.2069 327.184 21.5916 326.125 21.5488 325.434C21.5488 324.697 21.2924 323.638 21.0359 322.993C20.7367 322.349 19.9246 321.474 19.1979 321.105C18.3003 320.599 17.4026 320.414 16.334 320.645C15.18 320.829 14.4533 321.336 13.8549 322.303Z" fill="#FEFEFE"/>
<path d="M55.4449 322.164C54.8038 322.993 54.4618 324.099 54.4618 325.204C54.4618 326.54 54.761 327.276 55.7014 328.29C56.6418 329.257 57.4112 329.625 58.6935 329.625C60.0186 329.671 60.7452 329.349 61.7711 328.382C62.8397 327.368 63.0961 326.77 63.1816 325.158C63.2244 323.408 63.0534 322.993 61.7283 321.75C60.4033 320.507 60.0186 320.368 58.3088 320.599C56.8555 320.783 56.1288 321.197 55.4449 322.164Z" fill="#FEFEFE"/>
<path d="M97.8472 321.842C97.1205 322.809 96.7785 323.776 96.7785 325.02C96.7785 326.263 97.0778 327.23 97.7617 328.059C98.3601 328.842 99.3432 329.395 100.455 329.579C102.122 329.901 102.335 329.763 103.789 328.151C104.9 326.908 105.327 326.033 105.327 324.928C105.327 324.145 105.028 322.993 104.686 322.395C104.344 321.842 103.447 321.059 102.763 320.691C102.036 320.322 100.925 320.092 100.198 320.23C99.4714 320.368 98.4456 321.059 97.8472 321.842Z" fill="#FEFEFE"/>
<path d="M138.882 322.763C138.54 323.5 138.24 324.513 138.24 324.928C138.24 325.388 138.625 326.447 139.095 327.23C139.651 328.197 140.506 328.934 141.446 329.211C142.6 329.579 143.284 329.487 144.438 328.98C145.436 328.52 146.148 327.752 146.575 326.678C147.003 325.618 147.088 324.559 146.917 323.592C146.704 322.809 146.063 321.658 145.421 321.059C144.695 320.414 143.669 320 142.857 320C142.087 320 141.019 320.322 140.506 320.691C139.95 321.059 139.223 321.98 138.882 322.763Z" fill="#FEFEFE"/>
</g>
<g id="128">
<path d="M18.8975 307.473C18.3863 308.513 17.9603 309.928 18.0029 310.593C18.0029 311.259 18.2159 312.423 18.4289 313.089C18.5993 313.754 19.2809 314.836 19.8772 315.501C20.4736 316.125 21.5812 316.916 22.3479 317.332C23.0721 317.706 24.4778 317.997 25.415 317.997C26.4373 318.039 27.8856 317.623 29.0358 316.999C30.3989 316.292 31.2083 315.46 31.9324 314.129C32.4436 313.089 32.8696 311.591 32.8696 310.801C32.8696 310.011 32.614 308.68 32.2732 307.889C31.975 307.099 31.0805 305.934 30.3563 305.31C29.6321 304.645 28.3116 303.938 27.4597 303.688C26.5651 303.439 25.1594 303.314 24.35 303.439C23.5407 303.605 22.1775 304.146 21.3682 304.645C20.5588 305.186 19.4513 306.434 18.8975 307.473Z" fill="#FEFEFE"/>
<path d="M60.3452 307.058C60.0044 307.723 59.621 309.013 59.4932 309.844C59.3654 310.718 59.5358 312.091 59.7914 312.881C60.0896 313.713 60.6434 314.711 60.9841 315.127C61.3249 315.543 62.4751 316.375 63.54 316.957C65.0735 317.789 65.8829 317.956 67.672 317.831C68.9925 317.748 70.3131 317.332 71.0798 316.791C71.7188 316.333 72.6985 315.293 73.2523 314.503C73.7635 313.713 74.3173 312.423 74.4876 311.633C74.6154 310.843 74.4876 309.47 74.2321 308.597C73.9765 307.765 73.2523 306.475 72.6133 305.726C71.9318 305.019 70.7816 304.187 70.0575 303.855C69.2907 303.563 67.8424 303.314 66.8626 303.314C65.5421 303.314 64.4346 303.647 63.0288 304.562C61.8787 305.227 60.6859 306.35 60.3452 307.058Z" fill="#FEFEFE"/>
<path d="M102.474 307.058C101.921 308.097 101.495 309.595 101.495 310.385C101.495 311.175 101.878 312.59 102.304 313.505C102.773 314.42 103.667 315.585 104.349 316.084C104.988 316.624 106.18 317.248 106.99 317.498C107.799 317.748 109.29 317.872 110.312 317.706C111.463 317.54 112.613 316.999 113.635 316.084C114.487 315.377 115.467 314.254 115.765 313.588C116.106 312.964 116.361 311.467 116.361 310.26C116.361 308.68 116.106 307.723 115.424 306.642C114.87 305.851 113.763 304.77 112.953 304.271C111.846 303.522 110.866 303.314 109.12 303.314C107.501 303.314 106.266 303.605 105.115 304.271C104.008 304.853 103.071 305.851 102.474 307.058Z" fill="#FEFEFE"/>
<path d="M144.05 306.85C143.581 307.765 143.198 309.345 143.241 310.385C143.241 311.425 143.624 312.964 144.05 313.796C144.518 314.628 145.413 315.709 146.052 316.125C146.734 316.583 147.926 317.165 148.736 317.415C149.843 317.789 150.695 317.789 152.058 317.498C153.038 317.248 154.486 316.5 155.253 315.876C155.977 315.21 156.957 313.838 157.383 312.839C157.937 311.591 158.107 310.468 157.937 309.345C157.809 308.43 157.255 307.016 156.744 306.226C156.19 305.435 154.912 304.354 153.847 303.813C152.314 303.023 151.504 302.898 149.801 303.064C148.65 303.231 147.032 303.73 146.265 304.271C145.498 304.77 144.518 305.934 144.05 306.85Z" fill="#FEFEFE"/>
</g>
<g id="256">
<path d="M13.8592 294.511C13.3456 295.107 12.9604 295.861 13.0032 296.218C13.0032 296.575 13.3884 297.329 13.902 297.924C14.5868 298.797 15.1004 299.036 16.256 298.996C17.326 298.956 17.9252 298.678 18.5672 297.885C19.0808 297.25 19.466 296.416 19.466 295.98C19.466 295.543 18.9952 294.789 18.4816 294.313C17.8824 293.757 16.9408 293.4 16.1276 293.4C15.1004 293.4 14.5012 293.678 13.8592 294.511Z" fill="#FEFEFE"/>
<path d="M55.8454 293.995C55.3318 294.432 54.861 295.107 54.7754 295.464C54.6898 295.821 54.861 296.615 55.1178 297.25C55.4174 297.845 55.9738 298.48 56.359 298.639C56.7442 298.837 57.429 298.956 57.8569 298.956C58.2421 298.996 59.0981 298.639 59.7829 298.162C60.5533 297.647 60.9385 297.012 60.9385 296.258C60.9813 295.662 60.6389 294.749 60.2109 294.234C59.6973 293.638 58.9697 293.281 58.1137 293.241C57.3006 293.202 56.4018 293.519 55.8454 293.995Z" fill="#FEFEFE"/>
<path d="M97.9599 293.995C97.3607 294.551 96.8899 295.305 96.8899 295.702C96.8899 296.139 97.2751 296.932 97.7459 297.488C98.2167 298.083 98.9871 298.639 99.4579 298.758C99.9287 298.877 100.827 298.718 101.512 298.401C102.154 298.123 102.796 297.567 103.01 297.21C103.181 296.853 103.31 296.258 103.31 295.861C103.353 295.504 102.967 294.71 102.454 294.075C101.855 293.321 101.213 293.003 100.314 293.003C99.5007 293.003 98.6447 293.36 97.9599 293.995Z" fill="#FEFEFE"/>
<path d="M139.689 293.797C139.218 294.234 138.833 295.107 138.833 295.781C138.833 296.456 139.218 297.289 139.775 297.766C140.288 298.242 141.187 298.599 141.786 298.599C142.386 298.599 143.37 298.282 143.926 297.885C144.568 297.408 144.954 296.734 144.996 295.94C145.039 295.186 144.697 294.353 144.183 293.837C143.627 293.281 142.814 292.964 141.958 293.003C141.144 293.003 140.203 293.321 139.689 293.797Z" fill="#FEFEFE"/>
</g>
<g id="512">
<path d="M34.4286 275.214C34.1714 275.9 34 276.714 34 276.929C34.0429 277.143 34.3 277.957 34.6 278.643C34.9 279.329 35.6714 280.186 36.2714 280.443C36.9143 280.743 38.0286 281 38.7143 281C39.4429 281 40.3857 280.786 40.8571 280.571C41.3286 280.357 42.0143 279.543 42.3571 278.857C42.7 278.171 43 276.971 43 276.286C43 275.429 42.5714 274.571 41.7143 273.714C40.7714 272.771 40.0429 272.429 38.9286 272.429C38.1143 272.429 36.8286 272.771 36.1429 273.157C35.4143 273.586 34.6429 274.529 34.4286 275.214Z" fill="#FEFEFE"/>
<path d="M77.2429 273.586C76.3429 274.614 76 275.429 76 276.586C76 277.486 76.2571 278.514 76.5571 278.857C76.8571 279.243 77.5429 279.886 78.1429 280.271C78.7429 280.657 79.6429 281 80.2 281C80.7143 281 81.6571 280.743 82.3429 280.4C82.9857 280.1 83.7571 279.329 84.0571 278.686C84.3143 278.086 84.5714 276.971 84.5714 276.286C84.5714 275.471 84.1 274.486 83.3286 273.586C82.3 272.471 81.7429 272.214 80.2857 272.214C78.8286 272.214 78.2714 272.471 77.2429 273.586Z" fill="#FEFEFE"/>
<path d="M118.857 274.143C118.643 274.614 118.429 275.643 118.471 276.371C118.471 277.143 118.686 278.171 118.943 278.643C119.2 279.114 120.057 279.843 120.829 280.271C121.686 280.7 122.8 280.914 123.571 280.786C124.3 280.657 125.329 280.014 125.929 279.286C126.529 278.557 127 277.443 127 276.714C127 275.986 126.657 274.871 126.271 274.143C125.843 273.457 125.071 272.686 124.557 272.429C124 272.214 123.186 272 122.714 272C122.243 272 121.257 272.3 120.571 272.643C119.886 272.986 119.114 273.671 118.857 274.143Z" fill="#FEFEFE"/>
</g>
<g id="1024">
<path d="M40.2556 257.38C39.6976 258.183 39.1824 259.746 39.0537 260.845C38.9106 262.197 39.0537 263.366 39.4829 264.352C39.8693 265.155 40.599 266.296 41.1141 266.803C41.6293 267.352 42.7454 268.07 43.561 268.408C44.3766 268.746 45.7073 269 46.48 269C47.2098 269 48.3688 268.789 49.0556 268.535C49.6995 268.324 50.7727 267.606 51.4595 266.972C52.1463 266.338 52.962 265.197 53.2624 264.437C53.6059 263.718 53.8634 262.366 53.8634 261.479C53.8634 260.634 53.4771 259.113 53.0049 258.099C52.4039 256.916 51.5454 255.986 50.3434 255.268C49.0985 254.592 47.8537 254.211 46.5659 254.211C45.4927 254.211 43.8615 254.592 42.9171 255.056C41.9727 255.521 40.7707 256.577 40.2556 257.38Z" fill="#FEFEFE"/>
<path d="M81.1219 259.07C80.9502 259.746 80.7785 260.634 80.6927 260.972C80.6498 261.31 80.6927 262.155 80.8644 262.873C81.0361 263.549 81.5942 264.817 82.0663 265.62C82.5815 266.423 83.5259 267.394 84.2127 267.817C84.8566 268.197 86.1015 268.62 86.9171 268.789C87.7327 268.958 89.2351 268.873 90.2654 268.62C91.3385 268.324 92.6693 267.563 93.5707 266.676C94.6439 265.62 95.2019 264.606 95.4595 263.169C95.6741 261.986 95.6741 260.507 95.4166 259.493C95.2019 258.563 94.5151 257.254 93.8712 256.62C93.2273 255.944 92.1971 255.141 91.5532 254.803C90.8663 254.465 89.321 254.211 88.119 254.211C86.5307 254.211 85.3717 254.507 84.3415 255.141C83.5259 255.606 82.4956 256.451 82.1093 256.916C81.7229 257.423 81.2507 258.352 81.1219 259.07Z" fill="#FEFEFE"/>
<path d="M123.748 258.225C123.319 259.155 123.019 260.592 123.019 261.394C123.019 262.197 123.362 263.549 123.791 264.352C124.22 265.155 125.165 266.338 125.938 266.972C126.667 267.648 127.998 268.324 128.9 268.577C129.973 268.831 131.089 268.831 132.42 268.493C133.536 268.197 134.909 267.394 135.768 266.592C136.498 265.831 137.356 264.732 137.571 264.141C137.828 263.549 138 262.197 138 261.056C138 259.831 137.7 258.563 137.141 257.676C136.669 256.958 135.553 255.817 134.695 255.141C133.407 254.169 132.72 254 130.488 254C128.213 254 127.612 254.169 126.195 255.268C125.294 255.944 124.178 257.296 123.748 258.225Z" fill="#FEFEFE"/>
</g>
<g id="2048">
<path d="M34.8133 245.2C34.3443 245.76 33.9606 246.6 34.0032 247.12C34.0032 247.64 34.4722 248.48 35.069 249C35.6233 249.52 36.6038 249.96 37.2007 250C37.7975 250 38.7354 249.56 39.3323 249C39.9291 248.44 40.3981 247.6 40.3981 247.08C40.4407 246.6 40.057 245.76 39.5881 245.2C38.9912 244.44 38.3517 244.2 37.2007 244.2C36.0496 244.2 35.4101 244.44 34.8133 245.2Z" fill="#FEFEFE"/>
<path d="M76.6355 244.8C76.1239 245.28 75.7829 246.12 75.7829 246.96C75.7829 247.8 76.1239 248.56 76.6782 249.04C77.1897 249.48 78.1277 249.8 78.9377 249.76C79.7903 249.72 80.5151 249.36 81.0266 248.76C81.453 248.24 81.794 247.36 81.794 246.8C81.794 246.24 81.3251 245.4 80.8135 244.92C80.2593 244.4 79.3214 244 78.6819 244C77.9998 244 77.1045 244.36 76.6355 244.8Z" fill="#FEFEFE"/>
<path d="M118.415 245.08C117.904 245.72 117.52 246.48 117.563 246.84C117.563 247.2 117.946 247.96 118.458 248.56C119.14 249.44 119.652 249.68 120.803 249.64C121.868 249.6 122.465 249.32 123.105 248.48C123.616 247.88 124 247.04 124 246.6C123.957 246.16 123.574 245.4 123.105 244.88C122.55 244.28 121.783 244 120.76 244C119.609 244 119.055 244.28 118.415 245.08Z" fill="#FEFEFE"/>
</g>
<g id="4096">
<path d="M14.2803 224.725C13.2561 225.757 13 226.403 13 227.779C13 229.156 13.256 229.801 14.2376 230.748C15.1764 231.651 15.9446 231.996 17.2248 231.996C18.6331 232.039 19.2306 231.78 20.2548 230.748C21.279 229.715 21.535 229.07 21.535 227.693C21.535 226.317 21.279 225.671 20.2548 224.682C19.2732 223.735 18.5904 223.434 17.2675 223.434C15.9446 223.434 15.2618 223.735 14.2803 224.725Z" fill="#FEFEFE"/>
<path d="M55.5898 224.768C54.7363 225.671 54.3949 226.446 54.3949 227.564C54.3949 228.769 54.7363 229.457 55.8459 230.533C56.742 231.393 57.7662 231.953 58.5344 231.996C59.1745 232.039 60.4121 231.608 61.2229 231.049C62.2045 230.404 62.8446 229.586 63.1006 228.597C63.3567 227.521 63.314 226.747 62.8873 225.8C62.5459 225.069 61.607 224.123 60.7962 223.692C59.7293 223.09 58.9611 222.961 58.0223 223.219C57.3395 223.391 56.2299 224.08 55.5898 224.768Z" fill="#FEFEFE"/>
<path d="M97.9236 224.295C96.942 225.284 96.6433 225.972 96.6433 227.306C96.6433 228.554 96.942 229.371 97.8382 230.361C98.8624 231.522 99.3318 231.737 100.953 231.737C102.49 231.694 103.045 231.479 104.026 230.361C104.88 229.371 105.178 228.554 105.178 227.306C105.178 225.972 104.88 225.284 103.898 224.295C102.917 223.305 102.234 223.004 100.911 223.004C99.5879 223.004 98.9051 223.305 97.9236 224.295Z" fill="#FEFEFE"/>
<path d="M139.617 224.166C138.636 225.155 138.422 225.757 138.465 227.392C138.465 229.07 138.678 229.586 139.788 230.533C140.599 231.307 141.538 231.694 142.348 231.651C143.031 231.651 144.013 231.393 144.568 231.178C145.08 230.92 145.848 230.146 146.275 229.457C146.659 228.726 147 227.779 147 227.306C147 226.833 146.701 225.843 146.36 225.155C146.018 224.424 145.336 223.649 144.866 223.434C144.397 223.176 143.287 223.004 142.434 223.004C141.196 222.961 140.513 223.262 139.617 224.166Z" fill="#FEFEFE"/>
</g>
<g id="8192">
<path d="M18.826 209.167C18.5276 209.75 18.1866 210.875 18.0588 211.667C17.9309 212.458 18.0161 213.792 18.2719 214.583C18.485 215.375 19.0818 216.542 19.508 217.208C19.9343 217.833 21.0852 218.708 22.023 219.167C22.9607 219.625 24.4527 220 25.3478 220C26.2003 220 27.6922 219.625 28.63 219.167C29.5678 218.708 30.7613 217.75 31.3154 217C31.8696 216.208 32.3811 214.708 32.509 213.542C32.6795 212.125 32.5516 210.875 32.0827 209.708C31.6565 208.625 30.7613 207.458 29.8235 206.792C28.8005 206.042 27.5644 205.583 26.3282 205.458C25.2626 205.375 23.8559 205.417 23.2165 205.583C22.5345 205.708 21.4262 206.333 20.7016 207C19.9343 207.625 19.1244 208.583 18.826 209.167Z" fill="#FEFEFE"/>
<path d="M59.747 210.458C59.406 211.5 59.1076 212.417 59.1502 212.542C59.1502 212.625 59.406 213.542 59.747 214.583C60.088 215.75 60.8979 217 61.8357 217.792C62.6882 218.542 64.1801 219.375 65.2031 219.625C66.1835 219.875 67.5902 219.917 68.2722 219.792C68.9969 219.625 70.233 219.083 71.0429 218.583C71.8528 218.083 72.9611 216.833 73.4726 215.792C74.0267 214.792 74.453 213.375 74.4104 212.708C74.4104 212 74.1546 210.708 73.771 209.792C73.43 208.875 72.8332 207.792 72.4069 207.333C72.0233 206.917 71.1282 206.292 70.4035 205.958C69.7215 205.583 68.187 205.333 66.9934 205.292C65.8425 205.292 64.3932 205.542 63.7965 205.833C63.1997 206.125 62.1767 206.833 61.5373 207.458C60.8979 208.042 60.088 209.375 59.747 210.458Z" fill="#FEFEFE"/>
<path d="M102.671 208.333C101.947 209.458 101.734 210.375 101.734 212.292C101.734 214 101.989 215.208 102.544 216.042C102.97 216.75 103.993 217.792 104.803 218.333C105.613 218.917 107.019 219.417 108.128 219.5C109.193 219.625 110.728 219.5 111.538 219.25C112.348 219 113.669 218.125 114.436 217.333C115.161 216.5 116.013 215.083 116.227 214.167C116.482 213.208 116.525 211.833 116.312 210.917C116.141 210.083 115.502 208.75 114.905 207.958C114.351 207.167 113.115 206.167 112.177 205.75C111.239 205.333 109.79 205 108.98 205C108.17 205 106.636 205.417 105.57 205.917C104.504 206.458 103.226 207.542 102.671 208.333Z" fill="#FEFEFE"/>
<path d="M143.848 208.958C143.422 209.875 143.124 211.292 143.166 212.083C143.166 212.875 143.294 214 143.379 214.583C143.507 215.167 144.445 216.417 145.468 217.375C146.875 218.708 147.812 219.25 149.176 219.417C150.157 219.583 151.649 219.458 152.459 219.25C153.269 219 154.462 218.417 155.144 217.917C155.783 217.458 156.679 216.333 157.147 215.417C157.616 214.5 158 213.125 158 212.375C158 211.667 157.744 210.375 157.403 209.583C157.105 208.792 156.124 207.5 155.272 206.75C154.419 206.042 153.226 205.292 152.586 205.167C151.904 205 150.54 204.958 149.475 205.083C148.367 205.167 146.917 205.667 146.107 206.25C145.297 206.833 144.274 208.042 143.848 208.958Z" fill="#FEFEFE"/>
</g>
<g id="16384">
<path d="M13.3436 196.817C13.1718 197.089 13 197.948 13 198.672C13.0429 199.396 13.3006 200.347 13.6012 200.799C13.9018 201.206 14.7178 201.659 15.4049 201.885C16.4355 202.157 16.865 201.976 17.8527 201.026C18.4968 200.301 19.0121 199.306 19.0121 198.672C19.0121 198.039 18.5398 196.998 17.9385 196.41C17.3373 195.776 16.5643 195.279 16.2208 195.279C15.8772 195.279 15.1472 195.505 14.6319 195.776C14.0736 196.093 13.5153 196.546 13.3436 196.817Z" fill="#FEFEFE"/>
<path d="M55.5145 196.184C55.0421 196.681 54.6556 197.632 54.6556 198.31C54.6556 199.034 54.9562 200.075 55.2997 200.664C55.858 201.478 56.3733 201.704 57.5758 201.704C58.4776 201.659 59.4653 201.297 59.8947 200.844C60.3242 200.392 60.6677 199.351 60.6677 198.537C60.6677 197.677 60.3242 196.727 59.8089 196.184C59.3365 195.686 58.3917 195.279 57.6617 195.279C56.9316 195.279 55.9868 195.686 55.5145 196.184Z" fill="#FEFEFE"/>
<path d="M97.943 196.048C97.5136 196.5 97.1701 197.541 97.1701 198.31C97.1701 199.215 97.5136 200.166 98.0289 200.709C98.5013 201.207 99.4461 201.614 100.176 201.614C101.078 201.614 101.722 201.252 102.323 200.347C102.839 199.668 103.225 198.718 103.182 198.22C103.182 197.722 102.882 196.862 102.538 196.274C102.066 195.55 101.464 195.279 100.305 195.279C99.2743 195.233 98.3725 195.55 97.943 196.048Z" fill="#FEFEFE"/>
<path d="M139.556 196.319C139.126 196.862 138.783 197.722 138.826 198.22C138.826 198.718 139.04 199.442 139.298 199.849C139.556 200.256 140.286 200.845 140.887 201.116C141.703 201.478 142.347 201.523 143.12 201.206C143.721 200.935 144.408 200.256 144.709 199.713C145.01 199.08 145.095 198.129 144.881 197.315C144.709 196.546 144.108 195.686 143.507 195.369C142.948 195.052 142.003 194.917 141.402 195.052C140.801 195.188 139.985 195.776 139.556 196.319Z" fill="#FEFEFE"/>
</g>
<g id="32768">
<path d="M35.2321 175.588C34.7222 176.139 34.2123 177.156 34.0423 177.834C33.9148 178.555 34.0848 179.699 34.4248 180.462C34.8497 181.395 35.6146 182.073 36.6769 182.539C37.5267 182.878 38.759 183.09 39.4389 182.963C40.0763 182.836 41.0536 182.115 41.6485 181.437C42.3709 180.589 42.7108 179.657 42.7108 178.555C42.7108 177.707 42.4559 176.605 42.1584 176.139C41.8185 175.673 41.0111 175.037 40.3312 174.74C39.6089 174.401 38.4616 174.274 37.6117 174.401C36.8043 174.528 35.6995 175.079 35.2321 175.588Z" fill="#FEFEFE"/>
<path d="M76.0676 176.351C75.7276 177.029 75.4302 178.046 75.4302 178.555C75.4727 179.106 75.7276 180.038 76.0676 180.674C76.4075 181.352 77.0874 182.03 77.5548 182.285C78.0222 182.496 79.0421 182.708 79.8069 182.708C80.5293 182.708 81.6341 182.369 82.1865 181.988C82.7814 181.564 83.4613 180.632 83.7588 179.954C84.0562 179.233 84.1837 178.216 84.0562 177.622C83.9287 177.029 83.3338 176.054 82.6964 175.376C81.8466 174.486 81.2092 174.232 80.0194 174.232C79.127 174.232 78.0222 174.401 77.5548 174.656C77.0874 174.868 76.4075 175.63 76.0676 176.351Z" fill="#FEFEFE"/>
<path d="M118.475 175.588C117.838 176.393 117.498 177.326 117.498 178.428C117.498 179.657 117.795 180.335 118.688 181.183C119.325 181.818 120.217 182.454 120.685 182.581C121.152 182.708 122.045 182.666 122.725 182.539C123.362 182.412 124.339 181.776 124.934 181.098C125.699 180.293 126.039 179.487 125.996 178.343C125.996 177.495 125.657 176.309 125.274 175.673C124.849 175.079 123.914 174.401 123.234 174.189C122.512 173.977 121.407 173.935 120.727 174.105C120.047 174.274 119.028 174.952 118.475 175.588Z" fill="#FEFEFE"/>
</g>
<g id="65536">
<path d="M40.3309 159.365C39.7748 160.26 39.1758 161.836 39.0475 162.901C38.9191 164.179 39.0475 165.33 39.4753 166.309C39.8603 167.119 40.5876 168.269 41.101 168.78C41.6143 169.334 42.5555 170.058 43.24 170.399C43.8817 170.74 45.4218 170.996 46.6625 170.996C48.4165 171.038 49.2294 170.783 50.5984 169.803C51.6679 169.079 52.6091 167.928 53.0797 166.821C53.4647 165.841 53.8069 164.35 53.8069 163.54C53.8069 162.731 53.5503 161.41 53.208 160.644C52.9085 159.919 52.0957 158.769 51.4112 158.173C50.7267 157.534 49.4861 156.852 48.6732 156.554C47.8604 156.298 46.7053 156.085 46.1064 156.085C45.5074 156.085 44.224 156.469 43.24 156.937C42.1705 157.448 40.9726 158.471 40.3309 159.365Z" fill="#FEFEFE"/>
<path d="M82.0424 159.152C80.9729 160.686 80.759 161.368 80.759 163.327C80.759 164.648 81.1012 166.267 81.4863 167.034C81.8713 167.801 83.0692 168.993 84.1387 169.718C85.636 170.697 86.5772 170.996 88.0318 170.996C89.2296 170.996 90.5986 170.612 91.6681 170.016C92.5665 169.505 93.7644 168.482 94.235 167.8C94.7484 167.076 95.2617 165.798 95.4329 164.904C95.604 164.052 95.5612 162.561 95.3045 161.623C95.0906 160.686 94.3633 159.323 93.7216 158.599C93.0371 157.832 92.0104 156.98 91.3687 156.682C90.6842 156.341 89.2296 156.085 88.0318 156.085C86.8767 156.085 85.3366 156.383 84.6093 156.724C83.9248 157.065 82.7269 158.173 82.0424 159.152Z" fill="#FEFEFE"/>
<path d="M124.011 159.493C123.54 160.303 123.069 161.666 122.941 162.475C122.813 163.285 122.941 164.648 123.241 165.457C123.497 166.309 124.053 167.374 124.396 167.8C124.738 168.269 125.422 168.951 125.893 169.377C126.364 169.76 127.519 170.314 128.46 170.612C129.829 170.996 130.599 170.996 132.267 170.527C133.679 170.101 134.834 169.419 135.775 168.312C136.588 167.46 137.444 166.011 137.743 165.117C138.086 163.924 138.086 163.114 137.743 161.709C137.444 160.729 136.717 159.323 136.075 158.599C135.39 157.832 134.278 156.98 133.594 156.596C132.866 156.256 131.283 156 129.957 156C128.246 156.043 127.219 156.341 126.235 157.022C125.465 157.576 124.481 158.684 124.011 159.493Z" fill="#FEFEFE"/>
</g>
<g id="131072">
<path d="M34.981 147.46C34.4265 147.972 34 148.722 34 149.117C34 149.55 34.3839 150.339 34.8957 150.931C35.5355 151.76 36.1327 152.036 37.1137 151.996C37.9242 151.996 38.8626 151.602 39.4171 151.089C39.9716 150.576 40.3981 149.708 40.3981 149.077C40.3981 148.485 40.0142 147.657 39.545 147.223C39.0758 146.789 38.3507 146.395 37.9668 146.395C37.5403 146.355 36.9005 146.355 36.5592 146.395C36.218 146.434 35.4929 146.907 34.981 147.46Z" fill="#FEFEFE"/>
<path d="M76.9953 146.828C76.0995 147.42 75.8009 147.933 75.8009 148.959C75.8009 149.945 76.0995 150.576 76.91 151.168C77.5498 151.641 78.3602 152.036 78.7441 151.996C79.128 151.996 79.9384 151.641 80.6208 151.168C81.4739 150.576 81.7725 150.063 81.7725 148.998C81.7725 147.933 81.4739 147.42 80.6208 146.828C79.9384 146.355 79.128 146 78.7867 146C78.4455 146 77.6351 146.355 76.9953 146.828Z" fill="#FEFEFE"/>
<path d="M118.882 146.828C118.37 147.302 118.028 148.13 118.028 148.959C118.028 149.708 118.37 150.576 118.796 150.971C119.308 151.444 120.118 151.681 121.142 151.641C122.251 151.602 122.934 151.286 123.36 150.655C123.701 150.182 124 149.314 124 148.683C124 148.091 123.573 147.262 123.062 146.828C122.507 146.395 121.569 146.039 120.929 146.039C120.246 146.039 119.351 146.395 118.882 146.828Z" fill="#FEFEFE"/>
</g>
<g id="262144">
<path d="M12.8143 128.083C12.3429 128.928 12 129.688 12 129.773C12.0429 129.815 12.3 130.448 12.6429 131.166C12.9429 131.884 13.7571 132.813 14.4429 133.278C15.1286 133.743 16.2857 134.038 17.1429 133.996C18.1429 133.94 19.0429 133.517 19.8429 132.729C20.7857 131.8 21 131.166 21 129.73C21 128.252 20.7429 127.661 19.7143 126.647C18.8571 125.845 18 125.422 17.1429 125.422C16.4571 125.422 15.3429 125.676 14.7429 125.971C14.1 126.225 13.2429 127.196 12.8143 128.083Z" fill="#FEFEFE"/>
<path d="M54.6429 127.534C54.3 128.21 54 129.223 54.0429 129.73C54.0429 130.279 54.2571 131.082 54.4714 131.546C54.6857 132.011 55.4571 132.729 56.1429 133.109C56.8714 133.531 58.0286 133.869 58.7143 133.869C59.6143 133.869 60.4714 133.405 61.5 132.391C62.6571 131.251 63 130.575 63 129.392C63 128.294 62.6571 127.576 61.7143 126.647C60.7286 125.718 60.0429 125.422 58.7143 125.422C57.7714 125.422 56.6143 125.591 56.1429 125.845C55.6714 126.056 54.9857 126.816 54.6429 127.534Z" fill="#FEFEFE"/>
<path d="M97.5 126.689C96.8143 127.492 96.4286 128.463 96.4286 129.392C96.4286 130.322 96.8143 131.335 97.5 132.138C98.1429 132.898 99.1286 133.531 99.9857 133.7C100.843 133.869 101.871 133.7 102.771 133.278C103.5 132.898 104.357 132.222 104.571 131.758C104.829 131.293 105 130.237 105 129.435C105 128.632 104.829 127.576 104.571 127.112C104.357 126.647 103.5 125.971 102.771 125.591C101.871 125.169 100.843 125 99.9857 125.169C99.1714 125.296 98.1 125.971 97.5 126.689Z" fill="#FEFEFE"/>
<path d="M139.714 126.267C138.729 127.238 138.429 127.914 138.429 129.181C138.429 130.364 138.771 131.251 139.543 132.18C140.486 133.32 140.914 133.489 142.543 133.489C144.043 133.447 144.686 133.194 145.714 132.18C146.571 131.335 147 130.491 147 129.646C147 128.928 146.743 127.872 146.4 127.196C146.1 126.563 145.329 125.802 144.686 125.507C144.086 125.253 142.971 125 142.286 125C141.429 125 140.571 125.422 139.714 126.267Z" fill="#FEFEFE"/>
</g>
<g id="524288">
<path d="M19.2379 110.295C18.4267 111.388 18.1278 112.355 18.0425 114.457C17.9144 116.769 18.0425 117.4 18.8964 118.619C19.4087 119.417 20.4334 120.468 21.0739 120.931C21.8424 121.477 23.1233 121.856 24.4896 121.982C25.8985 122.066 27.3075 121.856 28.3322 121.435C29.2288 121.057 30.467 120.006 31.1928 118.997C32.2602 117.484 32.4737 116.811 32.4737 114.877C32.4737 113.28 32.1748 112.019 31.4917 110.883C30.8513 109.748 29.9119 108.866 28.6311 108.235C27.5637 107.731 26.0266 107.31 25.2154 107.31C24.4042 107.31 22.9525 107.646 22.0132 108.067C21.0739 108.487 19.8357 109.496 19.2379 110.295Z" fill="#FEFEFE"/>
<path d="M60.3115 111.094C59.7992 112.145 59.3722 113.742 59.3722 114.667C59.3722 115.592 59.7138 116.979 60.1407 117.778C60.525 118.577 61.5497 119.754 62.3609 120.426C63.1721 121.057 64.5384 121.729 65.3496 121.856C66.1609 122.024 67.5698 122.024 68.4664 121.856C69.3631 121.729 70.7293 121.015 71.626 120.216C72.4799 119.501 73.4192 118.24 73.7608 117.484C74.0596 116.769 74.3158 115.424 74.3158 114.541C74.3158 113.7 73.9315 112.187 73.4619 111.178C72.8641 110.001 72.0102 109.076 70.8147 108.361C69.5338 107.646 68.3384 107.31 66.844 107.31C65.4208 107.31 64.1399 107.632 63.0014 108.277C61.8486 108.908 60.952 109.832 60.3115 111.094Z" fill="#FEFEFE"/>
<path d="M102.495 110.883C101.983 111.892 101.641 113.448 101.641 114.667C101.641 115.97 101.94 117.315 102.452 118.156C102.879 118.913 103.819 119.922 104.459 120.384C105.142 120.847 106.423 121.393 107.32 121.645C108.387 121.898 109.54 121.856 110.949 121.519C112.187 121.183 113.468 120.468 114.365 119.628C115.09 118.871 115.944 117.484 116.158 116.559C116.414 115.634 116.457 114.078 116.286 113.07C116.115 112.103 115.603 110.715 115.091 110.043C114.621 109.328 113.468 108.403 112.529 107.941C111.504 107.478 109.967 107.142 108.686 107.142C107.192 107.184 106.082 107.478 104.929 108.193C104.075 108.739 102.965 109.959 102.495 110.883Z" fill="#FEFEFE"/>
<path d="M143.74 111.598C143.355 112.481 143.056 113.7 143.099 114.331C143.099 115.003 143.313 116.054 143.569 116.769C143.825 117.442 144.508 118.577 145.149 119.207C145.746 119.88 146.856 120.721 147.539 121.057C148.393 121.477 149.589 121.645 151.169 121.519C152.791 121.393 153.944 121.057 154.926 120.342C155.694 119.754 156.719 118.535 157.146 117.61C157.616 116.685 158 115.213 158 114.331C158 113.49 157.744 112.145 157.445 111.388C157.103 110.673 156.164 109.412 155.31 108.655C154.243 107.773 153.133 107.226 151.937 107.058C150.912 106.932 149.333 107.016 148.393 107.268C147.454 107.478 146.173 108.235 145.533 108.866C144.892 109.496 144.081 110.757 143.74 111.598Z" fill="#FEFEFE"/>
</g>
<g id="1048576">
<path d="M13.6385 98.3691C13.298 98.8793 13 99.7427 13 100.331C13 100.959 13.3831 101.783 13.8513 102.215C14.3196 102.647 15.256 103 15.9797 103C16.7033 103 17.6398 102.647 18.108 102.215C18.5762 101.783 18.9593 100.959 18.9593 100.331C18.9593 99.7427 18.6614 98.8793 18.3208 98.3691C17.8526 97.7019 17.2567 97.5057 15.9797 97.5057C14.7027 97.5057 14.1067 97.7019 13.6385 98.3691Z" fill="#FEFEFE"/>
<path d="M55.3539 98.0944C54.758 98.6438 54.2898 99.5072 54.2898 100.057C54.2898 100.606 54.758 101.509 55.3539 102.019C55.9073 102.529 56.7161 102.961 57.1417 103C57.5674 103 58.4187 102.686 59.0998 102.215C59.9511 101.626 60.2491 101.077 60.2491 100.135C60.2491 99.468 60.0788 98.6831 59.9086 98.4476C59.7383 98.2121 59.1849 97.8197 58.6741 97.5449C58.1208 97.3095 57.3971 97.1132 57.0566 97.1132C56.7161 97.1132 55.9499 97.5449 55.3539 98.0944Z" fill="#FEFEFE"/>
<path d="M97.2822 97.8982C96.8139 98.3298 96.4308 99.154 96.4308 99.7427C96.4308 100.371 96.7288 101.273 97.0694 101.783C97.6227 102.529 98.091 102.686 99.4531 102.647C100.645 102.608 101.283 102.372 101.752 101.705C102.092 101.234 102.39 100.371 102.39 99.7427C102.39 99.154 102.007 98.3298 101.539 97.8982C101.071 97.4665 100.134 97.1132 99.4105 97.1132C98.6869 97.1132 97.7504 97.4665 97.2822 97.8982Z" fill="#FEFEFE"/>
<path d="M138.742 97.9374C138.487 98.2513 138.146 98.84 137.976 99.2717C137.848 99.7034 137.976 100.449 138.274 100.881C138.572 101.352 139.296 101.98 139.934 102.254C140.871 102.686 141.296 102.725 142.148 102.294C142.743 102.058 143.467 101.43 143.723 100.92C144.106 100.253 144.106 99.7427 143.637 98.7615C143.297 98.0159 142.573 97.3487 141.977 97.1525C141.381 96.9563 140.53 96.9563 140.062 97.1132C139.594 97.2702 138.998 97.6627 138.742 97.9374Z" fill="#FEFEFE"/>
</g>
<path id="back" fill-rule="evenodd" clip-rule="evenodd" d="M6.10847e-06 12.6266L11.8945 0.665144L39.7337 0.237917C55.0389 0.0243195 87.7382 -0.103843 157.102 0.109755L168.74 11.7722L168.996 48.2973C169.124 68.3755 169.465 152.576 169.678 235.409C169.934 318.242 170.233 391.292 170.318 397.743C170.446 404.193 170.616 431.705 171 508.173L158.807 520.348L129.049 520.348C109.097 520.348 99.2917 520.476 99.2064 520.775C99.1638 521.074 85.4787 521.117 13.8556 520.647L2.55797 509.454L2.3448 506.037C2.25954 504.157 2.04637 457.721 1.91848 402.869C1.79058 348.017 1.49215 261.126 1.27899 209.777C1.06582 158.428 0.85266 97.4675 0.852661 74.2281C0.852661 48.3828 0.682133 32.064 0.468969 32.1067C0.213172 32.1067 0.0426387 28.1338 6.10847e-06 12.6266ZM3.79432 222.166C4.05011 290.431 4.39118 382.62 4.51908 427.006L4.77487 507.745L15.1346 518.297L157.528 517.827C163.71 512.017 166.097 509.54 166.822 508.6L168.144 506.891C167.334 281.759 166.993 185.64 166.907 148.047C166.779 110.454 166.609 64.7443 166.481 46.4604C166.353 28.0056 166.097 12.9256 165.884 12.5412C165.671 12.114 163.241 9.63624 160.427 7.07307L155.396 2.33121L13.5999 2.80112L3.02694 13.481C3.15483 39.6253 3.24009 58.6782 3.28273 72.6474C3.32536 86.6167 3.58115 153.9 3.79432 222.166ZM23.2349 27.5784C23.3201 26.6386 23.7038 25.4852 24.0023 25.0153C24.3433 24.5453 25.3239 23.8191 26.2618 23.3491C27.3702 22.8365 28.3934 22.6657 29.3314 22.8365C30.0561 22.9647 31.4204 23.7337 32.3156 24.5453C33.7225 25.8697 33.8931 26.2113 33.8504 28.091C33.8504 29.2017 33.552 30.6115 33.1683 31.2095C32.7846 31.8076 31.8041 32.6193 30.9514 33.0465C30.0987 33.431 28.905 33.7727 28.2655 33.7727C27.5834 33.7727 26.4323 33.3456 25.6649 32.8329C24.8975 32.3203 23.9596 31.295 23.6186 30.6115C23.2349 29.7998 23.107 28.6037 23.2349 27.5784ZM26.006 59.2762C26.006 58.7636 26.2192 57.9946 26.5176 57.5247C26.8586 57.0548 27.626 56.7131 28.3934 56.6704C29.1182 56.6704 30.0561 56.9267 30.4398 57.2685C30.8661 57.6529 31.1646 58.5073 31.1219 59.319C31.1219 60.2588 30.8235 60.8996 30.184 61.3268C29.6298 61.6686 28.905 61.9676 28.5213 62.0103C28.1803 62.0103 27.4555 61.6258 26.9439 61.1132C26.4323 60.6433 26.006 59.7888 26.006 59.2762ZM54.1436 28.1765C54.1436 27.493 54.442 26.6386 54.7831 26.2968C55.1242 25.9551 56.0195 25.656 56.7016 25.656C57.5542 25.656 58.1937 25.9693 58.6201 26.5958C58.9611 27.1512 59.2596 27.9201 59.2596 28.3046C59.2596 28.7318 58.8759 29.4581 58.4069 29.928C57.9379 30.3979 57.1279 30.8251 56.6163 30.8678C56.1047 30.9105 55.3373 30.5687 54.911 30.1416C54.4847 29.7144 54.1436 28.8173 54.1436 28.1765ZM69.4914 456.909C69.4914 456.653 69.7898 456.055 70.1309 455.499C70.5999 454.816 71.1967 454.56 72.2625 454.56C73.371 454.56 73.9252 454.816 74.5221 455.67C75.2042 456.696 75.2042 456.824 74.5221 458.234C73.8399 459.515 73.5842 459.686 72.1773 459.558C70.9409 459.515 70.4293 459.216 70.0456 458.404C69.7472 457.806 69.4914 457.123 69.4914 456.909ZM81.1301 483.737C81.1728 482.199 81.4712 481.259 82.1533 480.533C82.6223 480.02 83.7734 479.294 84.7113 479.038C85.9903 478.611 86.6724 478.611 87.9514 479.038C88.8893 479.294 89.9551 479.935 90.4241 480.405C90.8931 480.875 91.4046 482.028 91.6178 482.968C91.831 483.993 91.831 485.232 91.6178 486.044C91.4046 486.813 90.6799 487.924 89.9551 488.522C88.9746 489.376 88.2072 489.59 86.4592 489.59C84.8392 489.632 83.8587 489.376 83.006 488.735C82.3239 488.223 81.5991 487.411 81.3859 486.898C81.1728 486.386 81.0449 484.976 81.1301 483.737ZM97.629 456.909C97.629 456.653 97.9275 456.012 98.3538 455.457C98.8654 454.802 99.5475 454.474 100.4 454.474C101.082 454.474 101.892 454.773 102.148 455.072C102.447 455.371 102.788 456.012 102.915 456.482C103.086 457.037 102.873 457.764 102.319 458.49C101.85 459.173 101.04 459.686 100.528 459.686C99.9738 459.686 99.2491 459.472 98.8654 459.173C98.4817 458.874 98.0554 458.319 97.9275 457.977C97.7996 457.635 97.6717 457.123 97.629 456.909ZM109.993 28.0056C109.993 27.6638 110.462 26.8949 111.058 26.2968C111.868 25.4852 112.423 25.2715 113.318 25.4851C113.957 25.6133 114.725 26.0405 115.023 26.425C115.322 26.8095 115.535 27.5784 115.535 28.091C115.535 28.6464 115.023 29.4581 114.384 29.928C113.702 30.4406 112.934 30.7824 112.636 30.7824C112.337 30.7396 111.613 30.2697 111.058 29.7144C110.462 29.159 109.993 28.3901 109.993 28.0056ZM135.572 27.7066C135.572 25.9124 135.785 25.4424 137.064 24.1609C137.874 23.3492 139.068 22.5375 139.75 22.4094C140.39 22.2812 141.583 22.3666 142.393 22.5802C143.203 22.8365 144.397 23.5628 144.994 24.2463C145.591 24.8871 146.23 26.1259 146.401 26.9376C146.614 28.0483 146.486 28.86 145.847 30.1416C145.292 31.2095 144.44 32.1493 143.502 32.5765C142.649 33.0037 141.498 33.3455 140.901 33.3455C140.304 33.3455 139.239 33.0465 138.556 32.7048C137.874 32.363 136.894 31.5513 136.425 30.9105C135.828 30.1416 135.572 29.1163 135.572 27.7066ZM138.556 59.0626C138.556 58.4218 138.77 57.5675 139.068 57.0976C139.452 56.5849 140.134 56.2859 141.114 56.2859C142.095 56.2859 142.777 56.5849 143.161 57.0976C143.459 57.5675 143.672 58.3364 143.672 58.849C143.672 59.4044 143.289 60.2161 142.82 60.686C142.351 61.1559 141.626 61.5404 141.2 61.5831C140.773 61.6258 140.006 61.3268 139.494 60.8996C138.94 60.5151 138.556 59.7461 138.556 59.0626Z" fill="#FEFEFE"/>
</g>
</svg>
