<svg width="80" height="78" viewBox="0 0 80 78" fill="none" xmlns="http://www.w3.org/2000/svg">
<g id="fa-solid:microscope" filter="url(#filter0_d_35_174)">
<g clip-path="url(#clip0_35_174)">
<rect x="4" width="72" height="70" rx="8" fill="#303030"/>
<g id="Objective" filter="url(#filter1_d_35_174)">
<path d="M33.2 43.9091H34.775V45.9545C34.775 47.0847 35.7147 48 36.875 48H42.125C43.2852 48 44.225 47.0847 44.225 45.9545V43.9091H45.8C48.1192 43.9091 50 42.0771 50 39.8182V11.1818C50 8.92287 48.1192 7.09091 45.8 7.09091V5.04545C45.8 3.91534 44.8602 3 43.7 3H35.3C34.1397 3 33.2 3.91534 33.2 5.04545V7.09091C30.8808 7.09091 29 8.92287 29 11.1818V39.8182C29 42.0771 30.8808 43.9091 33.2 43.9091Z" fill="black"/>
</g>
<g id="Light" filter="url(#filter2_f_35_174)">
<path d="M19.5 69.5L38 48H41.5L59.5 69.5H19.5Z" fill="#FAFF00"/>
</g>
</g>
</g>
<defs>
<filter id="filter0_d_35_174" x="0" y="0" width="80" height="78" filterUnits="userSpaceOnUse" color-interpolation-filters="sRGB">
<feFlood flood-opacity="0" result="BackgroundImageFix"/>
<feColorMatrix in="SourceAlpha" type="matrix" values="0 0 0 0 0 0 0 0 0 0 0 0 0 0 0 0 0 0 127 0" result="hardAlpha"/>
<feOffset dy="4"/>
<feGaussianBlur stdDeviation="2"/>
<feComposite in2="hardAlpha" operator="out"/>
<feColorMatrix type="matrix" values="0 0 0 0 0 0 0 0 0 0 0 0 0 0 0 0 0 0 0.25 0"/>
<feBlend mode="normal" in2="BackgroundImageFix" result="effect1_dropShadow_35_174"/>
<feBlend mode="normal" in="SourceGraphic" in2="effect1_dropShadow_35_174" result="shape"/>
</filter>
<filter id="filter1_d_35_174" x="25" y="3" width="29" height="53" filterUnits="userSpaceOnUse" color-interpolation-filters="sRGB">
<feFlood flood-opacity="0" result="BackgroundImageFix"/>
<feColorMatrix in="SourceAlpha" type="matrix" values="0 0 0 0 0 0 0 0 0 0 0 0 0 0 0 0 0 0 127 0" result="hardAlpha"/>
<feOffset dy="4"/>
<feGaussianBlur stdDeviation="2"/>
<feComposite in2="hardAlpha" operator="out"/>
<feColorMatrix type="matrix" values="0 0 0 0 0 0 0 0 0 0 0 0 0 0 0 0 0 0 0.25 0"/>
<feBlend mode="normal" in2="BackgroundImageFix" result="effect1_dropShadow_35_174"/>
<feBlend mode="normal" in="SourceGraphic" in2="effect1_dropShadow_35_174" result="shape"/>
</filter>
<filter id="filter2_f_35_174" x="18.5" y="47" width="42" height="23.5" filterUnits="userSpaceOnUse" color-interpolation-filters="sRGB">
<feFlood flood-opacity="0" result="BackgroundImageFix"/>
<feBlend mode="normal" in="SourceGraphic" in2="BackgroundImageFix" result="shape"/>
<feGaussianBlur stdDeviation="0.5" result="effect1_foregroundBlur_35_174"/>
</filter>
<clipPath id="clip0_35_174">
<rect x="4" width="72" height="70" rx="8" fill="white"/>
</clipPath>
</defs>
</svg>
